<svg width="48" height="31" viewBox="0 0 48 31" fill="none" xmlns="http://www.w3.org/2000/svg">
<mask id="path-1-inside-1_1351_55045" fill="white">
<path fill-rule="evenodd" clip-rule="evenodd" d="M24.8385 23C24.3606 23 23.8984 23.1712 23.5358 23.4825L16.4041 29.6049C15.2628 30.5847 13.489 30.0013 13.1522 28.5352L12.237 24.5522C12.0283 23.6438 11.2198 23 10.2878 23L8 23C3.58172 23 -9.32852e-07 19.4183 -1.31911e-06 15L-1.93107e-06 8C-2.31733e-06 3.58173 3.58172 3.50157e-06 8 3.11531e-06L40 3.17786e-07C44.4183 -6.84722e-08 48 3.58172 48 8L48 15C48 19.4183 44.4183 23 40 23L24.8385 23Z"/>
</mask>
<path fill-rule="evenodd" clip-rule="evenodd" d="M24.8385 23C24.3606 23 23.8984 23.1712 23.5358 23.4825L16.4041 29.6049C15.2628 30.5847 13.489 30.0013 13.1522 28.5352L12.237 24.5522C12.0283 23.6438 11.2198 23 10.2878 23L8 23C3.58172 23 -9.32852e-07 19.4183 -1.31911e-06 15L-1.93107e-06 8C-2.31733e-06 3.58173 3.58172 3.50157e-06 8 3.11531e-06L40 3.17786e-07C44.4183 -6.84722e-08 48 3.58172 48 8L48 15C48 19.4183 44.4183 23 40 23L24.8385 23Z" fill="#00B400"/>
<path d="M8 23L8 24L8 23ZM8 3.11531e-06L8 -0.999997L8 3.11531e-06ZM40 3.17786e-07L40 1L40 3.17786e-07ZM12.237 24.5522L11.2624 24.7761L12.237 24.5522ZM10.2878 23L10.2878 24L10.2878 23ZM23.5358 23.4825L22.8844 22.7237L23.5358 23.4825ZM13.1522 28.5352L12.1776 28.7592L13.1522 28.5352ZM15.7528 28.8462L22.8844 22.7237L24.1872 24.2412L17.0555 30.3637L15.7528 28.8462ZM13.2116 24.3282L14.1268 28.3113L12.1776 28.7592L11.2624 24.7761L13.2116 24.3282ZM8 22L10.2878 22L10.2878 24L8 24L8 22ZM0.999999 15C0.999999 18.866 4.13401 22 8 22L8 24C3.02944 24 -1 19.9706 -1 15L0.999999 15ZM0.999998 8L0.999999 15L-1 15L-1 8L0.999998 8ZM8 1C4.13401 1 0.999998 4.13401 0.999998 8L-1 8C-1 3.02944 3.02944 -0.999996 8 -0.999997L8 1ZM40 1L8 1L8 -0.999997L40 -1L40 1ZM47 8C47 4.13401 43.866 1 40 1L40 -1C44.9706 -1 49 3.02944 49 8L47 8ZM47 15L47 8L49 8L49 15L47 15ZM40 22C43.866 22 47 18.866 47 15L49 15C49 19.9706 44.9706 24 40 24L40 22ZM24.8385 22L40 22L40 24L24.8385 24L24.8385 22ZM11.2624 24.7761C11.1581 24.3219 10.7538 24 10.2878 24L10.2878 22C11.6859 22 12.8986 22.9657 13.2116 24.3282L11.2624 24.7761ZM22.8844 22.7237C23.4284 22.2567 24.1216 22 24.8385 22L24.8385 24C24.5996 24 24.3685 24.0856 24.1872 24.2412L22.8844 22.7237ZM17.0555 30.3637C15.3435 31.8334 12.6828 30.9582 12.1776 28.7592L14.1268 28.3113C14.2952 29.0443 15.1821 29.3361 15.7528 28.8462L17.0555 30.3637Z" fill="black" mask="url(#path-1-inside-1_1351_55045)"/>
</svg>
