<svg width="16" height="16" viewBox="0 0 16 16" fill="none" xmlns="http://www.w3.org/2000/svg">
<path fill-rule="evenodd" clip-rule="evenodd" d="M10.0001 1.33325L10.0001 2.87489C10.5228 3.07901 11.0066 3.36078 11.4373 3.70601L12.7736 2.93453L14.7736 6.39864L13.4378 7.16986C13.4788 7.44058 13.5001 7.71777 13.5001 7.99992C13.5001 8.28207 13.4788 8.55926 13.4378 8.82997L14.7736 9.6012L12.7736 13.0653L11.4373 12.2938C11.0066 12.6391 10.5228 12.9208 10.0001 13.1249L10.0001 14.6666H6.00006L6.00002 13.125C5.47736 12.9208 4.99359 12.6391 4.56287 12.2939L3.22656 13.0653L1.22656 9.6012L2.5623 8.83C2.52131 8.55928 2.50007 8.28208 2.50007 7.99992C2.50007 7.71776 2.52131 7.44056 2.5623 7.16983L1.22656 6.39864L3.22656 2.93453L4.56284 3.70601C4.99356 3.36077 5.47735 3.079 6.00002 2.87488L6.00006 1.33325H10.0001ZM8.00006 5.99992C6.8955 5.99992 6.00006 6.89535 6.00006 7.99992C6.00006 9.10449 6.8955 9.99992 8.00006 9.99992C9.10463 9.99992 10.0001 9.10449 10.0001 7.99992C10.0001 6.89535 9.10463 5.99992 8.00006 5.99992Z" fill="#12BABA"/>
</svg>
