<svg width="16" height="16" viewBox="0 0 16 16" fill="none" xmlns="http://www.w3.org/2000/svg">
<path d="M2.72094 2.23877H13.2809C13.4065 2.23885 13.5295 2.27439 13.6357 2.34129C13.742 2.4082 13.8272 2.50375 13.8815 2.61695C13.9359 2.73015 13.9571 2.85639 13.9429 2.98114C13.9286 3.1059 13.8794 3.22408 13.8009 3.3221L9.48094 8.72277C9.38612 8.84095 9.33439 8.98792 9.33427 9.13944V12.5721C9.33427 12.6756 9.31018 12.7777 9.26389 12.8702C9.21761 12.9628 9.1504 13.0433 9.06761 13.1054L7.73427 14.1054C7.63523 14.1797 7.51745 14.225 7.39414 14.2361C7.27083 14.2472 7.14687 14.2238 7.03613 14.1684C6.92539 14.113 6.83226 14.0279 6.76717 13.9226C6.70208 13.8173 6.6676 13.6959 6.6676 13.5721V9.13877C6.66734 8.98748 6.61561 8.84078 6.52094 8.72277L2.20094 3.3221C2.12246 3.22408 2.07326 3.1059 2.059 2.98114C2.04474 2.85639 2.066 2.73015 2.12034 2.61695C2.17467 2.50375 2.25987 2.4082 2.36613 2.34129C2.47238 2.27439 2.59537 2.23885 2.72094 2.23877Z" fill="#12BABA"/>
</svg>
