<svg width="28" height="36" viewBox="0 0 28 36" fill="none" xmlns="http://www.w3.org/2000/svg">
<mask id="mask0_5757_79918" style="mask-type:alpha" maskUnits="userSpaceOnUse" x="4" y="12" width="24" height="24">
<rect x="4" y="12" width="24.0001" height="24.0001" fill="#D9D9D9"/>
</mask>
<g mask="url(#mask0_5757_79918)">
<path d="M19.15 33.3752C18.7667 33.5585 18.3834 33.5794 18 33.4377C17.6167 33.296 17.3334 33.0335 17.15 32.6502L14.15 26.2002L11.825 29.4502C11.5417 29.8502 11.1667 29.9752 10.7 29.8252C10.2333 29.6752 10 29.3585 10 28.8752V16.0501C10 15.6335 10.1875 15.3335 10.5625 15.1501C10.9375 14.9668 11.2917 15.0085 11.625 15.2751L21.725 23.2252C22.1084 23.5085 22.2209 23.8752 22.0625 24.3252C21.9042 24.7752 21.5834 25.0002 21.1 25.0002H16.9L19.875 31.3752C20.0584 31.7585 20.0792 32.1418 19.9375 32.5252C19.7959 32.9085 19.5334 33.1919 19.15 33.3752Z" fill="#F08201"/>
</g>
<mask id="mask1_5757_79918" style="mask-type:alpha" maskUnits="userSpaceOnUse" x="0" y="0" width="22" height="22">
<rect width="22.0001" height="22.0001" fill="#D9D9D9"/>
</mask>
<g mask="url(#mask1_5757_79918)">
<path d="M2.20653 11.6896L4.26286 13.8207C4.38577 13.9574 4.44804 14.1197 4.44966 14.3078C4.45144 14.4958 4.38636 14.6582 4.25443 14.7949C4.12236 14.9316 3.96928 15 3.7952 15C3.62127 15 3.46827 14.9316 3.33619 14.7949L0.226953 11.5817C0.143833 11.4958 0.0852646 11.405 0.0512475 11.3095C0.0170825 11.2141 0 11.1108 0 10.9999C0 10.8891 0.0170825 10.7859 0.0512475 10.6905C0.0852646 10.595 0.143833 10.5042 0.226953 10.4183L3.32776 7.20506C3.45969 7.06835 3.6141 7 3.79099 7C3.96788 7 4.12236 7.06835 4.25443 7.20506C4.39198 7.34177 4.45935 7.50561 4.45654 7.69657C4.45373 7.88753 4.38636 8.05145 4.25443 8.18831L2.21496 10.3015H19.785L17.7456 8.18831C17.6228 8.05145 17.5577 7.88753 17.5503 7.69657C17.5429 7.50561 17.608 7.34177 17.7456 7.20506C17.8776 7.06835 18.0335 7.00146 18.2132 7.00437C18.3929 7.00728 18.5488 7.07709 18.6809 7.2138L21.773 10.4183C21.8562 10.5042 21.9147 10.595 21.9488 10.6905C21.9829 10.7859 22 10.8891 22 10.9999C22 11.1108 21.9829 11.2141 21.9488 11.3095C21.9147 11.405 21.8562 11.4958 21.773 11.5817L18.6722 14.7949C18.5403 14.9316 18.3873 15 18.2132 15C18.0392 15 17.8833 14.9316 17.7456 14.7949C17.608 14.6582 17.5392 14.4944 17.5392 14.3034C17.5392 14.1125 17.608 13.9456 17.7456 13.803L19.785 11.6896H2.20653Z" fill="#F08201"/>
</g>
</svg>
