<svg width="28" height="28" viewBox="0 0 28 28" fill="none" xmlns="http://www.w3.org/2000/svg">
<path d="M16.7071 24.4683V25.2864C16.7071 25.9374 16.2266 26.479 15.6014 26.5712L15.3988 27.3144C15.2888 27.7177 14.9241 28 14.5015 28H12.4927C12.0701 28 11.7054 27.7177 11.5954 27.3144L11.3986 26.5712C10.7676 26.4733 10.2871 25.9374 10.2871 25.2807V24.4626C10.2871 24.0247 10.6402 23.6733 11.0802 23.6733H15.914C16.354 23.679 16.7071 24.0305 16.7071 24.4683ZM20.4295 13.4412C20.4295 15.3021 19.6885 16.9901 18.4843 18.2288C17.5697 19.1737 16.9792 20.3778 16.7824 21.6626C16.6955 22.2156 16.2151 22.6247 15.6477 22.6247H11.3465C10.7849 22.6247 10.2987 22.2214 10.2176 21.6683C10.015 20.3835 9.41874 19.1621 8.50407 18.223C7.32311 17.0016 6.58791 15.3424 6.57054 13.516C6.53002 9.67901 9.5982 6.57366 13.4537 6.54486C17.3034 6.51605 20.4295 9.61564 20.4295 13.4412ZM14.2815 9.2642C14.2815 8.83786 13.9342 8.48642 13.5 8.48642C10.7444 8.48642 8.49828 10.716 8.49828 13.4642C8.49828 13.8905 8.84563 14.242 9.2798 14.242C9.70819 14.242 10.0613 13.8963 10.0613 13.4642C10.0613 11.5745 11.607 10.042 13.5 10.042C13.9342 10.042 14.2815 9.6963 14.2815 9.2642ZM13.5 4.28066C13.9284 4.28066 14.2815 3.93498 14.2815 3.50288V0.777778C14.2815 0.35144 13.9342 0 13.5 0C13.0658 0 12.7185 0.345679 12.7185 0.777778V3.50288C12.7185 3.93498 13.0716 4.28066 13.5 4.28066ZM4.30124 13.4354C4.30124 13.0091 3.9539 12.6576 3.51973 12.6576H0.781518C0.35313 12.6576 0 13.0033 0 13.4354C0 13.8617 0.347341 14.2132 0.781518 14.2132H3.51973C3.9539 14.2132 4.30124 13.8675 4.30124 13.4354ZM26.2185 12.6576H23.4803C23.0519 12.6576 22.6988 13.0033 22.6988 13.4354C22.6988 13.8617 23.0461 14.2132 23.4803 14.2132H26.2185C26.6469 14.2132 27 13.8675 27 13.4354C27 13.0091 26.6527 12.6576 26.2185 12.6576ZM5.89322 19.9111L3.9539 21.8412C3.64708 22.1465 3.64708 22.6362 3.9539 22.9416C4.10442 23.0914 4.30703 23.1663 4.50386 23.1663C4.70069 23.1663 4.9033 23.0914 5.05382 22.9416L6.99314 21.0115C7.29996 20.7062 7.29996 20.2165 6.99314 19.9111C6.69211 19.6058 6.19425 19.6058 5.89322 19.9111ZM20.5568 7.19012C20.7536 7.19012 20.9563 7.11523 21.1068 6.96543L23.0461 5.03539C23.3529 4.73004 23.3529 4.24033 23.0461 3.93498C22.7393 3.62963 22.2472 3.62963 21.9404 3.93498L20.0011 5.86502C19.6943 6.17037 19.6943 6.66008 20.0011 6.96543C20.1574 7.11523 20.3542 7.19012 20.5568 7.19012ZM5.89322 6.95967C6.04374 7.10947 6.24635 7.18436 6.44318 7.18436C6.64001 7.18436 6.84262 7.10947 6.99314 6.95967C7.29996 6.65432 7.29996 6.16461 6.99314 5.85926L5.05382 3.92922C4.747 3.62387 4.25493 3.62387 3.94811 3.92922C3.64129 4.23457 3.64129 4.72428 3.94811 5.02963L5.89322 6.95967ZM21.1068 19.9111C20.8 19.6058 20.3079 19.6058 20.0011 19.9111C19.6943 20.2165 19.6943 20.7062 20.0011 21.0115L21.9404 22.9416C22.0909 23.0914 22.2935 23.1663 22.4904 23.1663C22.6872 23.1663 22.8898 23.0914 23.0403 22.9416C23.3471 22.6362 23.3471 22.1465 23.0403 21.8412L21.1068 19.9111Z" fill="#F08201"/>
</svg>
